<svg width="100" height="100" viewBox="0 0 100 100" fill="none" xmlns="http://www.w3.org/2000/svg">
<path d="M23.53 53.06C36.5253 53.06 47.06 42.5253 47.06 29.53C47.06 16.5347 36.5253 6 23.53 6C10.5347 6 0 16.5347 0 29.53C0 42.5253 10.5347 53.06 23.53 53.06Z" fill="#A576FF"/>
<path d="M29.412 94.236C39.1587 94.236 47.06 86.3347 47.06 76.588C47.06 66.8413 39.1587 58.94 29.412 58.94C19.6653 58.94 11.764 66.8413 11.764 76.588C11.764 86.3347 19.6653 94.236 29.412 94.236Z" fill="#A576FF"/>
<path d="M70.588 94.236C80.3347 94.236 88.236 86.3347 88.236 76.588C88.236 66.8413 80.3347 58.94 70.588 58.94C60.8413 58.94 52.94 66.8413 52.94 76.588C52.94 86.3347 60.8413 94.236 70.588 94.236Z" fill="#A576FF"/>
<path d="M76.47 53.06C89.4653 53.06 100 42.5253 100 29.53C100 16.5347 89.4653 6 76.47 6C63.4747 6 52.94 16.5347 52.94 29.53C52.94 42.5253 63.4747 53.06 76.47 53.06Z" fill="#A576FF"/>
</svg>
